<mxfile host="app.diagrams.net" modified="2023-06-13T15:52:24.317Z" agent="Mozilla/5.0 (X11; Linux x86_64; rv:109.0) Gecko/20100101 Firefox/113.0" etag="TTdbEPnZVMsdkV8oQBJw" version="21.3.7" type="github">
  <diagram id="C5RBs43oDa-KdzZeNtuy" name="Page-1">
    <mxGraphModel dx="1247" dy="789" grid="1" gridSize="10" guides="1" tooltips="1" connect="1" arrows="1" fold="1" page="1" pageScale="1" pageWidth="1169" pageHeight="1654" math="0" shadow="0">
      <root>
        <mxCell id="WIyWlLk6GJQsqaUBKTNV-0" />
        <mxCell id="WIyWlLk6GJQsqaUBKTNV-1" parent="WIyWlLk6GJQsqaUBKTNV-0" />
        <mxCell id="d7dhTKrKAuk2cxt4qfn0-4" value="Blutkonserve" style="rounded=0;whiteSpace=wrap;html=1;" vertex="1" parent="WIyWlLk6GJQsqaUBKTNV-1">
          <mxGeometry x="310" y="500" width="120" height="60" as="geometry" />
        </mxCell>
        <mxCell id="d7dhTKrKAuk2cxt4qfn0-5" value="Blutbank" style="rounded=0;whiteSpace=wrap;html=1;" vertex="1" parent="WIyWlLk6GJQsqaUBKTNV-1">
          <mxGeometry x="590" y="500" width="120" height="60" as="geometry" />
        </mxCell>
        <mxCell id="d7dhTKrKAuk2cxt4qfn0-6" value="Spender" style="rounded=0;whiteSpace=wrap;html=1;" vertex="1" parent="WIyWlLk6GJQsqaUBKTNV-1">
          <mxGeometry x="40" y="330" width="120" height="60" as="geometry" />
        </mxCell>
        <mxCell id="d7dhTKrKAuk2cxt4qfn0-7" value="Arzt" style="rounded=0;whiteSpace=wrap;html=1;" vertex="1" parent="WIyWlLk6GJQsqaUBKTNV-1">
          <mxGeometry x="900" y="330" width="120" height="60" as="geometry" />
        </mxCell>
        <mxCell id="d7dhTKrKAuk2cxt4qfn0-8" value="Blutabnahme" style="rounded=0;whiteSpace=wrap;html=1;" vertex="1" parent="WIyWlLk6GJQsqaUBKTNV-1">
          <mxGeometry x="590" y="330" width="120" height="60" as="geometry" />
        </mxCell>
        <mxCell id="d7dhTKrKAuk2cxt4qfn0-9" value="Krankheit" style="rounded=0;whiteSpace=wrap;html=1;" vertex="1" parent="WIyWlLk6GJQsqaUBKTNV-1">
          <mxGeometry x="590" y="160" width="120" height="60" as="geometry" />
        </mxCell>
        <mxCell id="d7dhTKrKAuk2cxt4qfn0-10" value="Untersuchung" style="rounded=0;whiteSpace=wrap;html=1;" vertex="1" parent="WIyWlLk6GJQsqaUBKTNV-1">
          <mxGeometry x="310" y="160" width="120" height="60" as="geometry" />
        </mxCell>
        <mxCell id="d7dhTKrKAuk2cxt4qfn0-11" value="Befund" style="rounded=0;whiteSpace=wrap;html=1;" vertex="1" parent="WIyWlLk6GJQsqaUBKTNV-1">
          <mxGeometry x="900" y="160" width="120" height="60" as="geometry" />
        </mxCell>
        <mxCell id="d7dhTKrKAuk2cxt4qfn0-12" value="Blutspende" style="rounded=0;whiteSpace=wrap;html=1;" vertex="1" parent="WIyWlLk6GJQsqaUBKTNV-1">
          <mxGeometry x="310" y="330" width="120" height="60" as="geometry" />
        </mxCell>
        <mxCell id="d7dhTKrKAuk2cxt4qfn0-13" value="Empfänger" style="rounded=0;whiteSpace=wrap;html=1;" vertex="1" parent="WIyWlLk6GJQsqaUBKTNV-1">
          <mxGeometry x="310" y="660" width="120" height="60" as="geometry" />
        </mxCell>
        <mxCell id="d7dhTKrKAuk2cxt4qfn0-14" value="" style="endArrow=none;html=1;rounded=0;entryX=1;entryY=0.5;entryDx=0;entryDy=0;exitX=0;exitY=0.5;exitDx=0;exitDy=0;" edge="1" parent="WIyWlLk6GJQsqaUBKTNV-1" source="d7dhTKrKAuk2cxt4qfn0-12" target="d7dhTKrKAuk2cxt4qfn0-6">
          <mxGeometry width="50" height="50" relative="1" as="geometry">
            <mxPoint x="390" y="700" as="sourcePoint" />
            <mxPoint x="440" y="650" as="targetPoint" />
          </mxGeometry>
        </mxCell>
        <mxCell id="d7dhTKrKAuk2cxt4qfn0-15" value="spendet ▶" style="edgeLabel;html=1;align=center;verticalAlign=middle;resizable=0;points=[];rotation=0;" vertex="1" connectable="0" parent="d7dhTKrKAuk2cxt4qfn0-14">
          <mxGeometry x="0.3455" y="-1" relative="1" as="geometry">
            <mxPoint x="31" y="-9" as="offset" />
          </mxGeometry>
        </mxCell>
        <mxCell id="d7dhTKrKAuk2cxt4qfn0-16" value="" style="endArrow=none;html=1;rounded=0;entryX=0;entryY=0.5;entryDx=0;entryDy=0;exitX=1;exitY=0.5;exitDx=0;exitDy=0;" edge="1" parent="WIyWlLk6GJQsqaUBKTNV-1" source="d7dhTKrKAuk2cxt4qfn0-12" target="d7dhTKrKAuk2cxt4qfn0-8">
          <mxGeometry width="50" height="50" relative="1" as="geometry">
            <mxPoint x="390" y="700" as="sourcePoint" />
            <mxPoint x="440" y="650" as="targetPoint" />
          </mxGeometry>
        </mxCell>
        <mxCell id="d7dhTKrKAuk2cxt4qfn0-17" value="wird gewonnen durch ▶" style="edgeLabel;html=1;align=center;verticalAlign=middle;resizable=0;points=[];rotation=0;" vertex="1" connectable="0" parent="WIyWlLk6GJQsqaUBKTNV-1">
          <mxGeometry x="509.9966666666667" y="350" as="geometry" />
        </mxCell>
        <mxCell id="d7dhTKrKAuk2cxt4qfn0-18" value="" style="endArrow=none;html=1;rounded=0;entryX=0;entryY=0.5;entryDx=0;entryDy=0;exitX=1;exitY=0.5;exitDx=0;exitDy=0;" edge="1" parent="WIyWlLk6GJQsqaUBKTNV-1">
          <mxGeometry width="50" height="50" relative="1" as="geometry">
            <mxPoint x="710" y="362.29" as="sourcePoint" />
            <mxPoint x="900" y="362.29" as="targetPoint" />
          </mxGeometry>
        </mxCell>
        <mxCell id="d7dhTKrKAuk2cxt4qfn0-19" value="wird durchgeführt von ▶" style="edgeLabel;html=1;align=center;verticalAlign=middle;resizable=0;points=[];rotation=0;" vertex="1" connectable="0" parent="WIyWlLk6GJQsqaUBKTNV-1">
          <mxGeometry x="809.9966666666667" y="350" as="geometry" />
        </mxCell>
        <mxCell id="d7dhTKrKAuk2cxt4qfn0-20" value="&lt;font style=&quot;font-size: 11px;&quot;&gt;◀ führt durch&lt;br&gt;&lt;/font&gt;" style="text;html=1;align=center;verticalAlign=middle;resizable=0;points=[];autosize=1;strokeColor=none;fillColor=none;" vertex="1" parent="WIyWlLk6GJQsqaUBKTNV-1">
          <mxGeometry x="760" y="360" width="90" height="30" as="geometry" />
        </mxCell>
        <mxCell id="d7dhTKrKAuk2cxt4qfn0-21" value="Blutdatenbank" style="rounded=0;whiteSpace=wrap;html=1;" vertex="1" parent="WIyWlLk6GJQsqaUBKTNV-1">
          <mxGeometry x="40" y="500" width="120" height="60" as="geometry" />
        </mxCell>
        <mxCell id="d7dhTKrKAuk2cxt4qfn0-22" value="" style="endArrow=none;html=1;rounded=0;entryX=0.5;entryY=1;entryDx=0;entryDy=0;exitX=0.5;exitY=0;exitDx=0;exitDy=0;" edge="1" parent="WIyWlLk6GJQsqaUBKTNV-1" source="d7dhTKrKAuk2cxt4qfn0-21" target="d7dhTKrKAuk2cxt4qfn0-6">
          <mxGeometry width="50" height="50" relative="1" as="geometry">
            <mxPoint x="530" y="670" as="sourcePoint" />
            <mxPoint x="580" y="620" as="targetPoint" />
          </mxGeometry>
        </mxCell>
        <mxCell id="d7dhTKrKAuk2cxt4qfn0-23" value="speichert ▶" style="edgeLabel;html=1;align=center;verticalAlign=middle;resizable=0;points=[];rotation=-90;" vertex="1" connectable="0" parent="WIyWlLk6GJQsqaUBKTNV-1">
          <mxGeometry x="90.00043478260875" y="450" as="geometry">
            <mxPoint x="7" y="-3" as="offset" />
          </mxGeometry>
        </mxCell>
        <mxCell id="d7dhTKrKAuk2cxt4qfn0-24" value="1" style="text;html=1;strokeColor=none;fillColor=none;align=center;verticalAlign=middle;whiteSpace=wrap;rounded=0;" vertex="1" parent="WIyWlLk6GJQsqaUBKTNV-1">
          <mxGeometry x="80" y="480" width="60" height="30" as="geometry" />
        </mxCell>
        <mxCell id="d7dhTKrKAuk2cxt4qfn0-25" value="*" style="text;html=1;strokeColor=none;fillColor=none;align=center;verticalAlign=middle;whiteSpace=wrap;rounded=0;" vertex="1" parent="WIyWlLk6GJQsqaUBKTNV-1">
          <mxGeometry x="80" y="390" width="60" height="30" as="geometry" />
        </mxCell>
        <mxCell id="d7dhTKrKAuk2cxt4qfn0-26" value="1..*" style="text;html=1;strokeColor=none;fillColor=none;align=center;verticalAlign=middle;whiteSpace=wrap;rounded=0;" vertex="1" parent="WIyWlLk6GJQsqaUBKTNV-1">
          <mxGeometry x="150" y="335" width="60" height="30" as="geometry" />
        </mxCell>
        <mxCell id="d7dhTKrKAuk2cxt4qfn0-27" value="1..*" style="text;html=1;strokeColor=none;fillColor=none;align=center;verticalAlign=middle;whiteSpace=wrap;rounded=0;" vertex="1" parent="WIyWlLk6GJQsqaUBKTNV-1">
          <mxGeometry x="260" y="335" width="60" height="30" as="geometry" />
        </mxCell>
        <mxCell id="d7dhTKrKAuk2cxt4qfn0-30" value="1" style="text;html=1;align=center;verticalAlign=middle;resizable=0;points=[];autosize=1;strokeColor=none;fillColor=none;" vertex="1" parent="WIyWlLk6GJQsqaUBKTNV-1">
          <mxGeometry x="875" y="335" width="30" height="30" as="geometry" />
        </mxCell>
        <mxCell id="d7dhTKrKAuk2cxt4qfn0-31" value="*" style="text;html=1;align=center;verticalAlign=middle;resizable=0;points=[];autosize=1;strokeColor=none;fillColor=none;" vertex="1" parent="WIyWlLk6GJQsqaUBKTNV-1">
          <mxGeometry x="710" y="335" width="30" height="30" as="geometry" />
        </mxCell>
        <mxCell id="d7dhTKrKAuk2cxt4qfn0-33" value="untersucht ▶" style="edgeLabel;html=1;align=center;verticalAlign=middle;resizable=0;points=[];rotation=90;" vertex="1" connectable="0" parent="WIyWlLk6GJQsqaUBKTNV-1">
          <mxGeometry x="360.00043478260875" y="270" as="geometry">
            <mxPoint x="7" y="-3" as="offset" />
          </mxGeometry>
        </mxCell>
        <mxCell id="d7dhTKrKAuk2cxt4qfn0-34" value="" style="endArrow=none;html=1;rounded=0;entryX=0;entryY=0.5;entryDx=0;entryDy=0;exitX=1;exitY=0.5;exitDx=0;exitDy=0;" edge="1" parent="WIyWlLk6GJQsqaUBKTNV-1" source="d7dhTKrKAuk2cxt4qfn0-10" target="d7dhTKrKAuk2cxt4qfn0-9">
          <mxGeometry width="50" height="50" relative="1" as="geometry">
            <mxPoint x="530" y="330" as="sourcePoint" />
            <mxPoint x="580" y="280" as="targetPoint" />
          </mxGeometry>
        </mxCell>
        <mxCell id="d7dhTKrKAuk2cxt4qfn0-35" value="beinhaltet ▶" style="edgeLabel;html=1;align=center;verticalAlign=middle;resizable=0;points=[];rotation=0;" vertex="1" connectable="0" parent="WIyWlLk6GJQsqaUBKTNV-1">
          <mxGeometry x="520.0004347826087" y="180" as="geometry" />
        </mxCell>
        <mxCell id="d7dhTKrKAuk2cxt4qfn0-36" value="1" style="text;html=1;align=center;verticalAlign=middle;resizable=0;points=[];autosize=1;strokeColor=none;fillColor=none;" vertex="1" parent="WIyWlLk6GJQsqaUBKTNV-1">
          <mxGeometry x="425" y="165" width="30" height="30" as="geometry" />
        </mxCell>
        <mxCell id="d7dhTKrKAuk2cxt4qfn0-37" value="1" style="text;html=1;align=center;verticalAlign=middle;resizable=0;points=[];autosize=1;strokeColor=none;fillColor=none;" vertex="1" parent="WIyWlLk6GJQsqaUBKTNV-1">
          <mxGeometry x="570" y="165" width="30" height="30" as="geometry" />
        </mxCell>
        <mxCell id="d7dhTKrKAuk2cxt4qfn0-38" value="1" style="text;html=1;align=center;verticalAlign=middle;resizable=0;points=[];autosize=1;strokeColor=none;fillColor=none;" vertex="1" parent="WIyWlLk6GJQsqaUBKTNV-1">
          <mxGeometry x="365" y="305" width="30" height="30" as="geometry" />
        </mxCell>
        <mxCell id="d7dhTKrKAuk2cxt4qfn0-39" value="1..*" style="text;html=1;align=center;verticalAlign=middle;resizable=0;points=[];autosize=1;strokeColor=none;fillColor=none;" vertex="1" parent="WIyWlLk6GJQsqaUBKTNV-1">
          <mxGeometry x="360" y="220" width="40" height="30" as="geometry" />
        </mxCell>
        <mxCell id="d7dhTKrKAuk2cxt4qfn0-40" value="" style="endArrow=none;html=1;rounded=0;entryX=1;entryY=0.5;entryDx=0;entryDy=0;exitX=0;exitY=0.5;exitDx=0;exitDy=0;" edge="1" parent="WIyWlLk6GJQsqaUBKTNV-1" source="d7dhTKrKAuk2cxt4qfn0-11" target="d7dhTKrKAuk2cxt4qfn0-9">
          <mxGeometry width="50" height="50" relative="1" as="geometry">
            <mxPoint x="530" y="330" as="sourcePoint" />
            <mxPoint x="580" y="280" as="targetPoint" />
          </mxGeometry>
        </mxCell>
        <mxCell id="d7dhTKrKAuk2cxt4qfn0-41" value="&lt;font style=&quot;font-size: 11px;&quot;&gt;führt zu ▶&lt;/font&gt;" style="text;whiteSpace=wrap;html=1;" vertex="1" parent="WIyWlLk6GJQsqaUBKTNV-1">
          <mxGeometry x="775" y="170" width="100" height="40" as="geometry" />
        </mxCell>
        <mxCell id="d7dhTKrKAuk2cxt4qfn0-42" value="1" style="text;html=1;align=center;verticalAlign=middle;resizable=0;points=[];autosize=1;strokeColor=none;fillColor=none;" vertex="1" parent="WIyWlLk6GJQsqaUBKTNV-1">
          <mxGeometry x="710" y="165" width="30" height="30" as="geometry" />
        </mxCell>
        <mxCell id="d7dhTKrKAuk2cxt4qfn0-43" value="1" style="text;html=1;align=center;verticalAlign=middle;resizable=0;points=[];autosize=1;strokeColor=none;fillColor=none;" vertex="1" parent="WIyWlLk6GJQsqaUBKTNV-1">
          <mxGeometry x="875" y="165" width="30" height="30" as="geometry" />
        </mxCell>
        <mxCell id="d7dhTKrKAuk2cxt4qfn0-44" value="" style="endArrow=none;html=1;rounded=0;entryX=0.5;entryY=1;entryDx=0;entryDy=0;exitX=0.5;exitY=0;exitDx=0;exitDy=0;" edge="1" parent="WIyWlLk6GJQsqaUBKTNV-1" source="d7dhTKrKAuk2cxt4qfn0-12" target="d7dhTKrKAuk2cxt4qfn0-10">
          <mxGeometry width="50" height="50" relative="1" as="geometry">
            <mxPoint x="580" y="370" as="sourcePoint" />
            <mxPoint x="630" y="320" as="targetPoint" />
          </mxGeometry>
        </mxCell>
        <mxCell id="d7dhTKrKAuk2cxt4qfn0-45" value="" style="endArrow=none;html=1;rounded=0;exitX=0.5;exitY=1;exitDx=0;exitDy=0;entryX=0.5;entryY=0;entryDx=0;entryDy=0;" edge="1" parent="WIyWlLk6GJQsqaUBKTNV-1" source="d7dhTKrKAuk2cxt4qfn0-12" target="d7dhTKrKAuk2cxt4qfn0-4">
          <mxGeometry width="50" height="50" relative="1" as="geometry">
            <mxPoint x="580" y="370" as="sourcePoint" />
            <mxPoint x="630" y="320" as="targetPoint" />
          </mxGeometry>
        </mxCell>
        <mxCell id="d7dhTKrKAuk2cxt4qfn0-46" value="beinhaltet ▶" style="edgeLabel;html=1;align=center;verticalAlign=middle;resizable=0;points=[];rotation=-90;" vertex="1" connectable="0" parent="WIyWlLk6GJQsqaUBKTNV-1">
          <mxGeometry x="360.00043478260875" y="450" as="geometry">
            <mxPoint x="5" y="4.440892098500626e-16" as="offset" />
          </mxGeometry>
        </mxCell>
        <mxCell id="d7dhTKrKAuk2cxt4qfn0-47" value="1" style="text;html=1;align=center;verticalAlign=middle;resizable=0;points=[];autosize=1;strokeColor=none;fillColor=none;" vertex="1" parent="WIyWlLk6GJQsqaUBKTNV-1">
          <mxGeometry x="365" y="390" width="30" height="30" as="geometry" />
        </mxCell>
        <mxCell id="d7dhTKrKAuk2cxt4qfn0-48" value="1" style="text;html=1;align=center;verticalAlign=middle;resizable=0;points=[];autosize=1;strokeColor=none;fillColor=none;" vertex="1" parent="WIyWlLk6GJQsqaUBKTNV-1">
          <mxGeometry x="365" y="480" width="30" height="30" as="geometry" />
        </mxCell>
        <mxCell id="d7dhTKrKAuk2cxt4qfn0-49" value="" style="endArrow=none;html=1;rounded=0;exitX=1;exitY=0.5;exitDx=0;exitDy=0;entryX=0;entryY=0.5;entryDx=0;entryDy=0;" edge="1" parent="WIyWlLk6GJQsqaUBKTNV-1" source="d7dhTKrKAuk2cxt4qfn0-4" target="d7dhTKrKAuk2cxt4qfn0-5">
          <mxGeometry width="50" height="50" relative="1" as="geometry">
            <mxPoint x="580" y="390" as="sourcePoint" />
            <mxPoint x="630" y="340" as="targetPoint" />
          </mxGeometry>
        </mxCell>
        <mxCell id="d7dhTKrKAuk2cxt4qfn0-50" value="&lt;font style=&quot;font-size: 11px;&quot;&gt;◀ verwaltet&lt;br&gt;&lt;/font&gt;" style="text;html=1;align=center;verticalAlign=middle;resizable=0;points=[];autosize=1;strokeColor=none;fillColor=none;" vertex="1" parent="WIyWlLk6GJQsqaUBKTNV-1">
          <mxGeometry x="470" y="510" width="80" height="30" as="geometry" />
        </mxCell>
        <mxCell id="d7dhTKrKAuk2cxt4qfn0-51" value="1" style="text;html=1;align=center;verticalAlign=middle;resizable=0;points=[];autosize=1;strokeColor=none;fillColor=none;" vertex="1" parent="WIyWlLk6GJQsqaUBKTNV-1">
          <mxGeometry x="560" y="500" width="30" height="30" as="geometry" />
        </mxCell>
        <mxCell id="d7dhTKrKAuk2cxt4qfn0-52" value="1..*" style="text;html=1;align=center;verticalAlign=middle;resizable=0;points=[];autosize=1;strokeColor=none;fillColor=none;" vertex="1" parent="WIyWlLk6GJQsqaUBKTNV-1">
          <mxGeometry x="425" y="500" width="40" height="30" as="geometry" />
        </mxCell>
        <mxCell id="d7dhTKrKAuk2cxt4qfn0-53" value="empfängt ▶" style="edgeLabel;html=1;align=center;verticalAlign=middle;resizable=0;points=[];rotation=-90;" vertex="1" connectable="0" parent="WIyWlLk6GJQsqaUBKTNV-1">
          <mxGeometry x="365.00043478260875" y="610" as="geometry">
            <mxPoint x="1" y="-7" as="offset" />
          </mxGeometry>
        </mxCell>
        <mxCell id="d7dhTKrKAuk2cxt4qfn0-54" value="" style="endArrow=none;html=1;rounded=0;exitX=0.5;exitY=0;exitDx=0;exitDy=0;entryX=0.5;entryY=1;entryDx=0;entryDy=0;" edge="1" parent="WIyWlLk6GJQsqaUBKTNV-1" source="d7dhTKrKAuk2cxt4qfn0-13" target="d7dhTKrKAuk2cxt4qfn0-4">
          <mxGeometry width="50" height="50" relative="1" as="geometry">
            <mxPoint x="580" y="470" as="sourcePoint" />
            <mxPoint x="630" y="420" as="targetPoint" />
          </mxGeometry>
        </mxCell>
        <mxCell id="d7dhTKrKAuk2cxt4qfn0-55" value="1" style="text;html=1;align=center;verticalAlign=middle;resizable=0;points=[];autosize=1;strokeColor=none;fillColor=none;" vertex="1" parent="WIyWlLk6GJQsqaUBKTNV-1">
          <mxGeometry x="365" y="630" width="30" height="30" as="geometry" />
        </mxCell>
        <mxCell id="d7dhTKrKAuk2cxt4qfn0-56" value="*" style="text;html=1;align=center;verticalAlign=middle;resizable=0;points=[];autosize=1;strokeColor=none;fillColor=none;" vertex="1" parent="WIyWlLk6GJQsqaUBKTNV-1">
          <mxGeometry x="365" y="560" width="30" height="30" as="geometry" />
        </mxCell>
        <mxCell id="d7dhTKrKAuk2cxt4qfn0-57" value="1" style="text;html=1;align=center;verticalAlign=middle;resizable=0;points=[];autosize=1;strokeColor=none;fillColor=none;" vertex="1" parent="WIyWlLk6GJQsqaUBKTNV-1">
          <mxGeometry x="420" y="330" width="30" height="30" as="geometry" />
        </mxCell>
        <mxCell id="d7dhTKrKAuk2cxt4qfn0-58" value="1" style="text;html=1;align=center;verticalAlign=middle;resizable=0;points=[];autosize=1;strokeColor=none;fillColor=none;" vertex="1" parent="WIyWlLk6GJQsqaUBKTNV-1">
          <mxGeometry x="560" y="330" width="30" height="30" as="geometry" />
        </mxCell>
      </root>
    </mxGraphModel>
  </diagram>
</mxfile>
